{
  "accessors": [
    {
      "bufferView": 2,
      "componentType": 5126,
      "count": 3517,
      "max": [
        7.6518521308898926,
        5.4680399894714355,
        7.9466252326965332
      ],
      "min": [
        2.6590850353240967,
        0.92799001932144165,
        4.448369026184082
      ],
      "type": "VEC3"
    },
    {
      "bufferView": 2,
      "byteOffset": 42204,
      "componentType": 5126,
      "count": 3517,
      "max": [
        0.99669140577316284,
        0.99975615739822388,
        0.99823486804962158
      ],
      "min": [
        -0.99938046932220459,
        -0.99923610687255859,
        -0.99920082092285156
      ],
      "type": "VEC3"
    },
    {
      "bufferView": 1,
      "componentType": 5126,
      "count": 3517,
      "max": [
        0.99340802431106567,
        0.99790400266647339
      ],
      "min": [
        0.00050500000361353159,
        4.6000001020729542e-05
      ],
      "type": "VEC2"
    },
    {
      "bufferView": 0,
      "componentType": 5125,
      "count": 13482,
      "max": [
        3516
      ],
      "min": [
        0
      ],
      "type": "SCALAR"
    },
    {
      "bufferView": 2,
      "byteOffset": 84408,
      "componentType": 5126,
      "count": 4925,
      "max": [
        4.0563578605651855,
        5.8200221061706543,
        7.2748908996582031
      ],
      "min": [
        -2.320789098739624,
        -0.37309500575065613,
        -0.54525101184844971
      ],
      "type": "VEC3"
    },
    {
      "bufferView": 2,
      "byteOffset": 143508,
      "componentType": 5126,
      "count": 4925,
      "max": [
        0.999675452709198,
        0.99957168102264404,
        0.99998390674591064
      ],
      "min": [
        -0.99894070625305176,
        -0.99851500988006592,
        -0.99997818470001221
      ],
      "type": "VEC3"
    },
    {
      "bufferView": 1,
      "byteOffset": 28136,
      "componentType": 5126,
      "count": 4925,
      "max": [
        1,
        1
      ],
      "min": [
        0,
        0
      ],
      "type": "VEC2"
    },
    {
      "bufferView": 0,
      "byteOffset": 53928,
      "componentType": 5125,
      "count": 29256,
      "max": [
        4924
      ],
      "min": [
        0
      ],
      "type": "SCALAR"
    }
  ],
  "asset": {
    "extras": {
      "author": "RafaelScopel (https://sketchfab.com/RafaelScopel)",
      "license": "CC-BY-4.0 (http://creativecommons.org/licenses/by/4.0/)",
      "source": "https://sketchfab.com/3d-models/nicos-rocket-45d04e77d216462495e10008658e51a9",
      "title": "Nico's Rocket"
    },
    "generator": "Sketchfab-9.0.0",
    "version": "2.0"
  },
  "bufferViews": [
    {
      "buffer": 0,
      "byteLength": 170952,
      "byteOffset": 0,
      "name": "floatBufferViews",
      "target": 34963
    },
    {
      "buffer": 0,
      "byteLength": 67536,
      "byteOffset": 170952,
      "byteStride": 8,
      "name": "floatBufferViews",
      "target": 34962
    },
    {
      "buffer": 0,
      "byteLength": 202608,
      "byteOffset": 238488,
      "byteStride": 12,
      "name": "floatBufferViews",
      "target": 34962
    }
  ],
  "buffers": [
    {
      "byteLength": 441096,
      "uri": "scene.bin"
    }
  ],
  "extensionsRequired": [
    "KHR_materials_pbrSpecularGlossiness"
  ],
  "extensionsUsed": [
    "KHR_materials_pbrSpecularGlossiness"
  ],
  "images": [
    {
      "uri": "textures/RocketTx_diffuse.png"
    },
    {
      "uri": "textures/RocketTx_specularGlossiness.png"
    },
    {
      "uri": "textures/Smoke_diffuse.png"
    },
    {
      "uri": "textures/Smoke_emissive.png"
    }
  ],
  "materials": [
    {
      "doubleSided": true,
      "extensions": {
        "KHR_materials_pbrSpecularGlossiness": {
          "diffuseFactor": [
            1,
            1,
            1,
            1
          ],
          "diffuseTexture": {
            "index": 0,
            "texCoord": 0
          },
          "glossinessFactor": 1,
          "specularFactor": [
            0.62796788449999996,
            0.62796788449999996,
            0.62796788449999996
          ],
          "specularGlossinessTexture": {
            "index": 1,
            "texCoord": 0
          }
        }
      },
      "name": "RocketTx"
    },
    {
      "doubleSided": true,
      "emissiveFactor": [
        1,
        1,
        1
      ],
      "emissiveTexture": {
        "index": 3,
        "texCoord": 0
      },
      "extensions": {
        "KHR_materials_pbrSpecularGlossiness": {
          "diffuseFactor": [
            1,
            1,
            1,
            1
          ],
          "diffuseTexture": {
            "index": 2,
            "texCoord": 0
          },
          "glossinessFactor": 0,
          "specularFactor": [
            0,
            0,
            0
          ]
        }
      },
      "name": "Smoke"
    }
  ],
  "meshes": [
    {
      "primitives": [
        {
          "attributes": {
            "NORMAL": 1,
            "POSITION": 0,
            "TEXCOORD_0": 2
          },
          "indices": 3,
          "material": 0,
          "mode": 4
        }
      ]
    },
    {
      "primitives": [
        {
          "attributes": {
            "NORMAL": 5,
            "POSITION": 4,
            "TEXCOORD_0": 6
          },
          "indices": 7,
          "material": 1,
          "mode": 4
        }
      ]
    }
  ],
  "nodes": [
    {
      "children": [
        1
      ],
      "name": "RootNode (gltf orientation matrix)",
      "rotation": [
        -0.70710678118654746,
        -0,
        -0,
        0.70710678118654757
      ]
    },
    {
      "children": [
        2
      ],
      "name": "RootNode (model correction matrix)"
    },
    {
      "children": [
        3,
        4
      ],
      "name": "Rocketman.obj.cleaner.materialmerger.gles"
    },
    {
      "mesh": 0,
      "name": ""
    },
    {
      "mesh": 1,
      "name": ""
    }
  ],
  "samplers": [
    {
      "magFilter": 9729,
      "minFilter": 9987,
      "wrapS": 10497,
      "wrapT": 10497
    }
  ],
  "scene": 0,
  "scenes": [
    {
      "name": "OSG_Scene",
      "nodes": [
        0
      ]
    }
  ],
  "textures": [
    {
      "sampler": 0,
      "source": 0
    },
    {
      "sampler": 0,
      "source": 1
    },
    {
      "sampler": 0,
      "source": 2
    },
    {
      "sampler": 0,
      "source": 3
    }
  ]
}

